<svg width="48" height="48" viewBox="0 0 32 32" xmlns="http://www.w3.org/2000/svg"><path fill-rule="evenodd" clip-rule="evenodd" d="M16 3C8.8203 3 3 8.8203 3 16C3 23.1797 8.8203 29 16 29C23.1797 29 29 23.1797 29 16C29 8.8203 23.1797 3 16 3ZM5 16C5 9.92487 9.92487 5 16 5C22.0751 5 27 9.92487 27 16C27 21.738 22.6065 26.4499 17 26.9552V19H20.6476L21.0003 17H17V14C17 12.9037 17.2724 12.3564 17.6065 12.0558C17.9634 11.7346 18.6031 11.5 19.75 11.5C20.045 11.5 20.693 11.5465 21.3529 11.6023V9.59527C20.7464 9.54526 20.1051 9.5 19.75 9.5C18.3969 9.5 17.1616 9.76543 16.2685 10.5692C15.3526 11.3936 15 12.5963 15 14V17H11V19H15V26.9552C9.3935 26.4499 5 21.738 5 16Z" fill="#000000" class="bmwfcol"/><title>facebook_rg_48</title></svg>