<svg width="48" height="48" viewBox="0 0 32 32" xmlns="http://www.w3.org/2000/svg"><path d="M22.5 8C21.6716 8 21 8.67157 21 9.5C21 10.3284 21.6716 11 22.5 11C23.3284 11 24 10.3284 24 9.5C24 8.67157 23.3284 8 22.5 8Z" fill="#000000" class="bmwfcol"/><path fill-rule="evenodd" clip-rule="evenodd" d="M10 16C10 12.6863 12.6863 10 16 10C19.3137 10 22 12.6863 22 16C22 19.3137 19.3137 22 16 22C12.6863 22 10 19.3137 10 16ZM16 12C13.7909 12 12 13.7909 12 16C12 18.2091 13.7909 20 16 20C18.2091 20 20 18.2091 20 16C20 13.7909 18.2091 12 16 12Z" fill="#000000" class="bmwfcol"/><path fill-rule="evenodd" clip-rule="evenodd" d="M16.1 4H15.9C13.2374 3.99997 11.2981 3.99994 9.81502 4.23064C8.23886 4.47582 7.09396 4.99179 6.04288 6.04291C4.99182 7.094 4.47585 8.23888 4.23066 9.81504C3.99994 11.2982 3.99997 13.2376 4 15.9005V16.0995C3.99997 18.7623 3.99994 20.7018 4.23066 22.185C4.47585 23.7611 4.99182 24.906 6.04288 25.9571C7.09396 27.0082 8.23886 27.5242 9.81502 27.7694C11.2981 28.0001 13.2374 28 15.9 28H16.1C18.7626 28 20.7019 28.0001 22.185 27.7694C23.7611 27.5242 24.906 27.0082 25.9571 25.9571C27.0082 24.906 27.5242 23.7611 27.7693 22.185C28.0001 20.7018 28 18.7623 28 16.0995V15.9005C28 13.2377 28.0001 11.2982 27.7693 9.81504C27.5242 8.23888 27.0082 7.094 25.9571 6.04291C24.906 4.99179 23.7611 4.47582 22.185 4.23064C20.7019 3.99994 18.7626 3.99997 16.1 4ZM7.45712 7.4571C8.15598 6.75821 8.88609 6.39919 10.1224 6.20687C11.4334 6.00294 13.2141 6 16 6C18.7859 6 20.5666 6.00294 21.8776 6.20687C23.1139 6.39919 23.844 6.75821 24.5429 7.4571C25.2418 8.156 25.6008 8.88612 25.7931 10.1225C25.997 11.4334 26 13.2141 26 16C26 18.7859 25.997 20.5666 25.7931 21.8775C25.6008 23.1139 25.2418 23.844 24.5429 24.5429C23.844 25.2418 23.1139 25.6008 21.8776 25.7931C20.5666 25.9971 18.7859 26 16 26C13.2141 26 11.4334 25.9971 10.1224 25.7931C8.88609 25.6008 8.15598 25.2418 7.45712 24.5429C6.75824 23.844 6.39922 23.1139 6.20689 21.8775C6.00296 20.5666 6 18.7859 6 16C6 13.2141 6.00296 11.4334 6.20689 10.1225C6.39922 8.88612 6.75824 8.156 7.45712 7.4571Z" fill="#000000" class="bmwfcol"/><title>instagram_rg_48</title></svg>