<svg width="48" height="48" viewBox="0 0 32 32" xmlns="http://www.w3.org/2000/svg"><path d="M16 16.4127V24H14V13H16V13.7154C16.7864 13.1392 17.7696 12.6699 19 12.6699C20.1471 12.6699 21.2365 13.0314 21.9943 14.0307C22.7064 14.9698 23 16.3155 23 17.9999V23.9999H21V17.9999C21 16.4843 20.7235 15.665 20.4006 15.2391C20.1234 14.8735 19.7128 14.6699 19 14.6699C17.7628 14.6699 16.965 15.4422 16 16.4127Z" fill="#000000" class="bmwfcol"/><path d="M11 13V24H9V13H11Z" fill="#000000" class="bmwfcol"/><path d="M10 8.5C9.17157 8.5 8.5 9.17157 8.5 10C8.5 10.8284 9.17157 11.5 10 11.5C10.8284 11.5 11.5 10.8284 11.5 10C11.5 9.17157 10.8284 8.5 10 8.5Z" fill="#000000" class="bmwfcol"/><path fill-rule="evenodd" clip-rule="evenodd" d="M4 7V25C4 25.8259 4.25722 26.6014 4.82789 27.1721C5.39856 27.7428 6.17408 28 7 28H25C25.8259 28 26.6014 27.7428 27.1721 27.1721C27.7428 26.6014 28 25.8259 28 25V7C28 6.17408 27.7428 5.39856 27.1721 4.82789C26.6014 4.25722 25.8259 4 25 4H7C6.17408 4 5.39856 4.25722 4.82789 4.82789C4.25722 5.39856 4 6.17408 4 7ZM6 7C6 6.58592 6.12278 6.36144 6.24211 6.24211C6.36144 6.12278 6.58592 6 7 6H25C25.4141 6 25.6386 6.12278 25.7579 6.24211C25.8772 6.36144 26 6.58592 26 7V25C26 25.4141 25.8772 25.6386 25.7579 25.7579C25.6386 25.8772 25.4141 26 25 26H7C6.58592 26 6.36144 25.8772 6.24211 25.7579C6.12278 25.6386 6 25.4141 6 25V7Z" fill="#000000" class="bmwfcol"/><title>linkedin_rg_48</title></svg>