<svg width="48" height="48" viewBox="0 0 32 32" xmlns="http://www.w3.org/2000/svg"><path fill-rule="evenodd" clip-rule="evenodd" d="M6.23581 8.55165C5.62919 8.72615 5.28742 8.92677 5.1071 9.10709C4.66437 9.54982 4.33988 10.478 4.16719 11.8522C4.0014 13.1715 4 14.6571 4 16C4 17.3429 4.0014 18.8285 4.16719 20.1478C4.33988 21.522 4.66437 22.4502 5.1071 22.8929C5.28742 23.0732 5.62919 23.2738 6.23581 23.4484C6.83278 23.6201 7.60531 23.744 8.56324 23.8289C10.4841 23.9991 12.9828 24 16 24C19.0172 24 21.5159 23.9991 23.4368 23.8289C24.3947 23.744 25.1672 23.6201 25.7642 23.4484C26.3708 23.2738 26.7126 23.0732 26.8929 22.8929C27.3356 22.4502 27.6601 21.522 27.8328 20.1478C27.9986 18.8285 28 17.3429 28 16C28 14.6571 27.9986 13.1715 27.8328 11.8522C27.6601 10.478 27.3356 9.54982 26.8929 9.10709C26.7126 8.92677 26.3708 8.72615 25.7642 8.55165C25.1672 8.37991 24.3947 8.25597 23.4368 8.1711C21.5159 8.0009 19.0172 8 16 8C12.9828 8 10.4841 8.0009 8.56324 8.1711C7.60531 8.25597 6.83278 8.37991 6.23581 8.55165ZM15.9557 6H16.0443C19.0086 6 21.5941 5.99999 23.6133 6.1789C24.6304 6.26902 25.5453 6.40758 26.3171 6.62959C27.0792 6.84883 27.7875 7.17321 28.3071 7.69288C29.2644 8.65016 29.6399 10.1919 29.8172 11.6028C30 13.0576 30 14.6588 30 15.9705V16.0295C30 17.3412 30 18.9424 29.8172 20.3972C29.6399 21.8081 29.2644 23.3498 28.3071 24.3071C27.7875 24.8268 27.0792 25.1512 26.3171 25.3704C25.5453 25.5924 24.6304 25.731 23.6133 25.8211C21.5941 26 19.0086 26 16.0443 26H15.9557C12.9914 26 10.4059 26 8.38672 25.8211C7.36964 25.731 6.45467 25.5924 5.68289 25.3704C4.92076 25.1512 4.21254 24.8268 3.69287 24.3071C2.73561 23.3498 2.36011 21.8081 2.1828 20.3972C1.99998 18.9424 1.99999 17.3412 2 16.0295V15.9705C1.99999 14.6588 1.99998 13.0576 2.1828 11.6028C2.36011 10.1919 2.73561 8.65016 3.69287 7.69288C4.21254 7.17321 4.92076 6.84883 5.68289 6.62959C6.45467 6.40758 7.36964 6.26902 8.38672 6.1789C10.4059 5.99999 12.9914 6 15.9557 6Z" fill="#000000" class="bmwfcol"/><path d="M13.7839 20.7499H12.0109V11.2501H13.7839L22.0113 16L13.7839 20.7499ZM14.0109 13.69V18.3091L18.0108 15.9991L14.0109 13.69Z" fill="#000000" class="bmwfcol"/><title>youtube_rg_48</title></svg>